<svg xmlns="http://www.w3.org/2000/svg" viewBox="0 0 512 512" width="1024" height="1024">
  <title>Halftime: bar scarf</title>
  <rect width="512" height="512" fill="#F4F1E6"/>
  <rect x="-20" y="128" width="64" height="256" fill="#1C2D4A"/>
  <rect x="44" y="128" width="64" height="256" fill="#D9A928"/>
  <rect x="108" y="128" width="64" height="256" fill="#1C2D4A"/>
  <rect x="172" y="128" width="64" height="256" fill="#D9A928"/>
  <rect x="236" y="128" width="64" height="256" fill="#1C2D4A"/>
  <rect x="300" y="128" width="64" height="256" fill="#D9A928"/>
  <rect x="364" y="128" width="64" height="256" fill="#1C2D4A"/>
  <rect x="428" y="128" width="64" height="256" fill="#D9A928"/>
  <rect x="492" y="128" width="64" height="256" fill="#1C2D4A"/>
  <rect x="136" y="128" width="240" height="256" fill="#1C2D4A"/>
  <path d="M-16,128 V384 M-8,128 V384 M0,128 V384 M8,128 V384 M16,128 V384 M24,128 V384 M32,128 V384 M40,128 V384 M48,128 V384 M56,128 V384 M64,128 V384 M72,128 V384 M80,128 V384 M88,128 V384 M96,128 V384 M104,128 V384 M112,128 V384 M120,128 V384 M128,128 V384 M136,128 V384 M144,128 V384 M152,128 V384 M160,128 V384 M168,128 V384 M176,128 V384 M184,128 V384 M192,128 V384 M200,128 V384 M208,128 V384 M216,128 V384 M224,128 V384 M232,128 V384 M240,128 V384 M248,128 V384 M256,128 V384 M264,128 V384 M272,128 V384 M280,128 V384 M288,128 V384 M296,128 V384 M304,128 V384 M312,128 V384 M320,128 V384 M328,128 V384 M336,128 V384 M344,128 V384 M352,128 V384 M360,128 V384 M368,128 V384 M376,128 V384 M384,128 V384 M392,128 V384 M400,128 V384 M408,128 V384 M416,128 V384 M424,128 V384 M432,128 V384 M440,128 V384 M448,128 V384 M456,128 V384 M464,128 V384 M472,128 V384 M480,128 V384 M488,128 V384 M496,128 V384 M504,128 V384 M512,128 V384 M520,128 V384" stroke="#1B1A17" stroke-width="1.2" opacity="0.18"/>
  <path d="M214.95714285714286 171.0H241.67142857142858V240.21428571428572H270.3285714285714V171.0H297.04285714285714V341.0H270.3285714285714V264.5H241.67142857142858V341.0H214.95714285714286Z" fill="#D9A928" />
  <rect x="0" y="120" width="512" height="8" fill="#F4F1E6"/>
  <rect x="0" y="384" width="512" height="8" fill="#F4F1E6"/>
</svg>
