<svg xmlns="http://www.w3.org/2000/svg" viewBox="0 0 512 512" width="1024" height="1024">
  <title>Halftime: wood-type poster</title>
  <rect width="512" height="512" fill="#F4F1E6"/>
  <path d="M58,118 H454 M58,128 H454 M58,384 H454 M58,394 H454" stroke="#1B1A17" stroke-width="4"/>
  <path d="M160.83999999999997 70.0H171.64857142857142V73.71428571428572H164.92571428571426V80.95714285714286H170.2V84.67142857142858H164.92571428571426V96.0H160.83999999999997Z M185.01999999999998 89.83428571428571V76.16571428571429Q185.01999999999998 73.04571428571428 186.61714285714282 71.33714285714285Q188.2142857142857 69.62857142857143 191.22285714285712 69.62857142857143Q194.23142857142855 69.62857142857143 195.82857142857142 71.33714285714285Q197.42571428571426 73.04571428571428 197.42571428571426 76.16571428571429V89.83428571428571Q197.42571428571426 92.95428571428572 195.82857142857142 94.66285714285715Q194.23142857142855 96.37142857142857 191.22285714285712 96.37142857142857Q188.2142857142857 96.37142857142857 186.61714285714282 94.66285714285715Q185.01999999999998 92.95428571428572 185.01999999999998 89.83428571428571ZM193.34 90.09428571428572V75.90571428571428Q193.34 73.34285714285714 191.22285714285712 73.34285714285714Q189.10571428571427 73.34285714285714 189.10571428571427 75.90571428571428V90.09428571428572Q189.10571428571427 92.65714285714286 191.22285714285712 92.65714285714286Q193.34 92.65714285714286 193.34 90.09428571428572Z M211.57714285714283 89.83428571428571V76.16571428571429Q211.57714285714283 73.04571428571428 213.1742857142857 71.33714285714285Q214.77142857142854 69.62857142857143 217.77999999999997 69.62857142857143Q220.7885714285714 69.62857142857143 222.38571428571427 71.33714285714285Q223.98285714285714 73.04571428571428 223.98285714285714 76.16571428571429V89.83428571428571Q223.98285714285714 92.95428571428572 222.38571428571427 94.66285714285715Q220.7885714285714 96.37142857142857 217.77999999999997 96.37142857142857Q214.77142857142854 96.37142857142857 213.1742857142857 94.66285714285715Q211.57714285714283 92.95428571428572 211.57714285714283 89.83428571428571ZM219.89714285714285 90.09428571428572V75.90571428571428Q219.89714285714285 73.34285714285714 217.77999999999997 73.34285714285714Q215.66285714285712 73.34285714285714 215.66285714285712 75.90571428571428V90.09428571428572Q215.66285714285712 92.65714285714286 217.77999999999997 92.65714285714286Q219.89714285714285 92.65714285714286 219.89714285714285 90.09428571428572Z M241.62571428571425 73.71428571428572H237.35428571428568V70.0H249.9828571428571V73.71428571428572H245.71142857142854V96.0H241.62571428571425Z M263.65142857142854 70.0H269.8171428571428Q272.97428571428566 70.0 274.4228571428571 71.46714285714286Q275.8714285714285 72.93428571428572 275.8714285714285 75.98V77.02Q275.8714285714285 79.02571428571429 275.22142857142853 80.28857142857143Q274.5714285714285 81.55142857142857 273.23428571428565 82.10857142857142V82.18285714285715Q276.28 83.22285714285714 276.28 87.60571428571428V89.83428571428571Q276.28 92.84285714285714 274.70142857142855 94.42142857142858Q273.1228571428571 96.0 270.0771428571428 96.0H263.65142857142854ZM269.33428571428567 80.58571428571429Q270.55999999999995 80.58571428571429 271.1728571428571 79.95428571428572Q271.7857142857142 79.32285714285715 271.7857142857142 77.83714285714285V76.38857142857142Q271.7857142857142 74.97714285714285 271.28428571428566 74.34571428571428Q270.7828571428571 73.71428571428572 269.70571428571424 73.71428571428572H267.7371428571428V80.58571428571429ZM270.0771428571428 92.28571428571429Q271.15428571428566 92.28571428571429 271.6742857142857 91.71000000000001Q272.1942857142857 91.13428571428571 272.1942857142857 89.72285714285714V87.45714285714286Q272.1942857142857 85.67428571428572 271.58142857142855 84.98714285714286Q270.96857142857135 84.3 269.5571428571428 84.3H267.7371428571428V92.28571428571429Z M293.5142857142857 70.0H299.0485714285714L303.2828571428571 96.0H299.1971428571428L298.4542857142857 90.83714285714285V90.91142857142857H293.8114285714285L293.0685714285714 96.0H289.28ZM297.97142857142853 87.38285714285715 296.15142857142854 74.53142857142856H296.0771428571428L294.29428571428565 87.38285714285715Z M316.95142857142855 70.0H321.03714285714284V92.28571428571429H327.75999999999993V96.0H316.95142857142855Z M341.4285714285714 70.0H345.5142857142857V92.28571428571429H352.23714285714277V96.0H341.4285714285714Z" fill="#1B1A17"/>
  <path d="M87.16571428571427 416.0H91.50285714285712L94.86571428571428 429.16857142857145H94.92857142857142V416.0H98.00857142857141V438.0H94.45714285714284L90.30857142857141 421.94H90.24571428571427V438.0H87.16571428571427Z M106.08571428571427 416.0H115.5142857142857V419.14285714285717H109.54285714285713V424.95714285714286H114.28857142857142V428.1H109.54285714285713V434.85714285714283H115.5142857142857V438.0H106.08571428571427Z M122.17714285714284 416.0H125.50857142857141L127.0485714285714 432.9085714285714H127.11142857142855L128.74571428571426 416.0H132.51714285714283L134.15142857142854 432.9085714285714H134.2142857142857L135.7542857142857 416.0H138.73999999999998L136.5085714285714 438.0H132.2028571428571L130.63142857142856 423.1657142857143H130.5685714285714L128.99714285714285 438.0H124.4085714285714Z M145.4028571428571 432.78285714285715V431.5257142857143H148.67142857142855V433.0342857142857Q148.67142857142855 435.1714285714286 150.4628571428571 435.1714285714286Q151.3428571428571 435.1714285714286 151.7985714285714 434.65285714285716Q152.2542857142857 434.13428571428574 152.2542857142857 432.9714285714286Q152.2542857142857 431.5885714285714 151.62571428571425 430.5357142857143Q150.99714285714282 429.48285714285714 149.29999999999998 428.0057142857143Q147.16285714285712 426.12 146.3142857142857 424.5957142857143Q145.46571428571426 423.07142857142856 145.46571428571426 421.1542857142857Q145.46571428571426 418.54571428571427 146.78571428571425 417.11571428571426Q148.10571428571424 415.6857142857143 150.61999999999998 415.6857142857143Q153.10285714285712 415.6857142857143 154.37571428571425 417.11571428571426Q155.6485714285714 418.54571428571427 155.6485714285714 421.21714285714285V422.12857142857143H152.37999999999997V420.9971428571429Q152.37999999999997 419.86571428571426 151.93999999999997 419.34714285714284Q151.49999999999997 418.8285714285714 150.65142857142854 418.8285714285714Q148.9228571428571 418.8285714285714 148.9228571428571 420.9342857142857Q148.9228571428571 422.12857142857143 149.5671428571428 423.16571428571433Q150.21142857142854 424.20285714285717 151.9085714285714 425.68Q154.07714285714283 427.5657142857143 154.89428571428567 429.10571428571427Q155.71142857142854 430.6457142857143 155.71142857142854 432.72Q155.71142857142854 435.42285714285714 154.37571428571425 436.8685714285714Q153.03999999999996 438.3142857142857 150.4942857142857 438.3142857142857Q147.97999999999996 438.3142857142857 146.69142857142853 436.88428571428574Q145.4028571428571 435.45428571428573 145.4028571428571 432.78285714285715Z M173.71999999999997 425.3342857142857H177.05142857142854V428.6657142857143H173.71999999999997Z M195.05999999999997 432.78285714285715V431.5257142857143H198.32857142857142V433.0342857142857Q198.32857142857142 435.1714285714286 200.11999999999998 435.1714285714286Q201.0 435.1714285714286 201.4557142857143 434.65285714285716Q201.91142857142856 434.13428571428574 201.91142857142856 432.9714285714286Q201.91142857142856 431.5885714285714 201.28285714285713 430.5357142857143Q200.6542857142857 429.48285714285714 198.95714285714286 428.0057142857143Q196.82 426.12 195.97142857142856 424.5957142857143Q195.12285714285713 423.07142857142856 195.12285714285713 421.1542857142857Q195.12285714285713 418.54571428571427 196.44285714285712 417.11571428571426Q197.76285714285711 415.6857142857143 200.27714285714285 415.6857142857143Q202.76 415.6857142857143 204.03285714285713 417.11571428571426Q205.30571428571426 418.54571428571427 205.30571428571426 421.21714285714285V422.12857142857143H202.03714285714284V420.9971428571429Q202.03714285714284 419.86571428571426 201.59714285714284 419.34714285714284Q201.15714285714284 418.8285714285714 200.3085714285714 418.8285714285714Q198.57999999999998 418.8285714285714 198.57999999999998 420.9342857142857Q198.57999999999998 422.12857142857143 199.2242857142857 423.16571428571433Q199.8685714285714 424.20285714285717 201.56571428571428 425.68Q203.7342857142857 427.5657142857143 204.55142857142857 429.10571428571427Q205.3685714285714 430.6457142857143 205.3685714285714 432.72Q205.3685714285714 435.42285714285714 204.03285714285713 436.8685714285714Q202.69714285714284 438.3142857142857 200.15142857142857 438.3142857142857Q197.63714285714283 438.3142857142857 196.3485714285714 436.88428571428574Q195.05999999999997 435.45428571428573 195.05999999999997 432.78285714285715Z M212.62857142857143 432.9085714285714V421.0914285714286Q212.62857142857143 418.51428571428573 213.93285714285713 417.1Q215.23714285714286 415.6857142857143 217.72 415.6857142857143Q220.20285714285714 415.6857142857143 221.50714285714287 417.1Q222.81142857142856 418.51428571428573 222.81142857142856 421.0914285714286V423.41714285714284H219.54285714285714V420.87142857142857Q219.54285714285714 418.8285714285714 217.81428571428572 418.8285714285714Q216.0857142857143 418.8285714285714 216.0857142857143 420.87142857142857V433.16Q216.0857142857143 435.1714285714286 217.81428571428572 435.1714285714286Q219.54285714285714 435.1714285714286 219.54285714285714 433.16V429.79714285714283H222.81142857142856V432.9085714285714Q222.81142857142856 435.48571428571427 221.50714285714287 436.9Q220.20285714285714 438.3142857142857 217.72 438.3142857142857Q215.23714285714286 438.3142857142857 213.93285714285713 436.9Q212.62857142857143 435.48571428571427 212.62857142857143 432.9085714285714Z M230.13428571428574 432.78285714285715V421.21714285714285Q230.13428571428574 418.57714285714286 231.48571428571432 417.1314285714286Q232.83714285714288 415.6857142857143 235.38285714285715 415.6857142857143Q237.92857142857144 415.6857142857143 239.28000000000003 417.1314285714286Q240.6314285714286 418.57714285714286 240.6314285714286 421.21714285714285V432.78285714285715Q240.6314285714286 435.42285714285714 239.28000000000003 436.8685714285714Q237.92857142857144 438.3142857142857 235.38285714285715 438.3142857142857Q232.83714285714288 438.3142857142857 231.48571428571432 436.8685714285714Q230.13428571428574 435.42285714285714 230.13428571428574 432.78285714285715ZM237.17428571428573 433.0028571428571V420.9971428571429Q237.17428571428573 418.8285714285714 235.38285714285715 418.8285714285714Q233.5914285714286 418.8285714285714 233.5914285714286 420.9971428571429V433.0028571428571Q233.5914285714286 435.1714285714286 235.38285714285715 435.1714285714286Q237.17428571428573 435.1714285714286 237.17428571428573 433.0028571428571Z M248.45714285714288 416.0H253.58Q256.2514285714286 416.0 257.4771428571429 417.24142857142857Q258.70285714285717 418.48285714285714 258.70285714285717 421.06V422.4114285714286Q258.70285714285717 425.83714285714285 256.44000000000005 426.74857142857144V426.81142857142856Q257.69714285714286 427.18857142857144 258.2157142857143 428.3514285714286Q258.73428571428576 429.51428571428573 258.73428571428576 431.46285714285716V435.3285714285714Q258.73428571428576 436.27142857142854 258.7971428571429 436.85285714285715Q258.86 437.4342857142857 259.1114285714286 438.0H255.5914285714286Q255.40285714285716 437.4657142857143 255.34000000000003 436.99428571428575Q255.27714285714288 436.52285714285716 255.27714285714288 435.29714285714283V431.2742857142857Q255.27714285714288 429.7657142857143 254.79000000000002 429.16857142857145Q254.30285714285716 428.57142857142856 253.10857142857145 428.57142857142856H251.91428571428574V438.0H248.45714285714288ZM253.1714285714286 425.42857142857144Q254.20857142857145 425.42857142857144 254.7271428571429 424.89428571428573Q255.2457142857143 424.36 255.2457142857143 423.10285714285715V421.4057142857143Q255.2457142857143 420.21142857142854 254.8214285714286 419.6771428571428Q254.39714285714288 419.14285714285717 253.48571428571432 419.14285714285717H251.91428571428574V425.42857142857144Z M266.62285714285713 416.0H276.0514285714286V419.14285714285717H270.08000000000004V424.95714285714286H274.8257142857143V428.1H270.08000000000004V434.85714285714283H276.0514285714286V438.0H266.62285714285713Z M282.9342857142857 432.78285714285715V431.5257142857143H286.2028571428571V433.0342857142857Q286.2028571428571 435.1714285714286 287.9942857142857 435.1714285714286Q288.8742857142857 435.1714285714286 289.33 434.65285714285716Q289.7857142857143 434.13428571428574 289.7857142857143 432.9714285714286Q289.7857142857143 431.5885714285714 289.15714285714284 430.5357142857143Q288.5285714285714 429.48285714285714 286.83142857142855 428.0057142857143Q284.6942857142857 426.12 283.8457142857143 424.5957142857143Q282.9971428571428 423.07142857142856 282.9971428571428 421.1542857142857Q282.9971428571428 418.54571428571427 284.3171428571428 417.11571428571426Q285.63714285714286 415.6857142857143 288.15142857142854 415.6857142857143Q290.6342857142857 415.6857142857143 291.90714285714284 417.11571428571426Q293.18 418.54571428571427 293.18 421.21714285714285V422.12857142857143H289.9114285714286V420.9971428571429Q289.9114285714286 419.86571428571426 289.47142857142853 419.34714285714284Q289.03142857142853 418.8285714285714 288.18285714285713 418.8285714285714Q286.45428571428573 418.8285714285714 286.45428571428573 420.9342857142857Q286.45428571428573 422.12857142857143 287.0985714285714 423.16571428571433Q287.74285714285713 424.20285714285717 289.44 425.68Q291.6085714285714 427.5657142857143 292.42571428571426 429.10571428571427Q293.24285714285713 430.6457142857143 293.24285714285713 432.72Q293.24285714285713 435.42285714285714 291.90714285714284 436.8685714285714Q290.57142857142856 438.3142857142857 288.0257142857143 438.3142857142857Q285.51142857142855 438.3142857142857 284.22285714285715 436.88428571428574Q282.9342857142857 435.45428571428573 282.9342857142857 432.78285714285715Z M311.2514285714285 425.3342857142857H314.5828571428571V428.6657142857143H311.2514285714285Z M332.5914285714285 432.78285714285715V431.5257142857143H335.8599999999999V433.0342857142857Q335.8599999999999 435.1714285714286 337.6514285714285 435.1714285714286Q338.5314285714285 435.1714285714286 338.98714285714277 434.65285714285716Q339.44285714285706 434.13428571428574 339.44285714285706 432.9714285714286Q339.44285714285706 431.5885714285714 338.81428571428563 430.5357142857143Q338.1857142857142 429.48285714285714 336.48857142857133 428.0057142857143Q334.35142857142847 426.12 333.502857142857 424.5957142857143Q332.6542857142856 423.07142857142856 332.6542857142856 421.1542857142857Q332.6542857142856 418.54571428571427 333.97428571428566 417.11571428571426Q335.29428571428565 415.6857142857143 337.8085714285713 415.6857142857143Q340.29142857142847 415.6857142857143 341.56428571428563 417.11571428571426Q342.8371428571428 418.54571428571427 342.8371428571428 421.21714285714285V422.12857142857143H339.5685714285714V420.9971428571429Q339.5685714285714 419.86571428571426 339.1285714285714 419.34714285714284Q338.6885714285713 418.8285714285714 337.8399999999999 418.8285714285714Q336.1114285714285 418.8285714285714 336.1114285714285 420.9342857142857Q336.1114285714285 422.12857142857143 336.75571428571425 423.16571428571433Q337.3999999999999 424.20285714285717 339.0971428571428 425.68Q341.2657142857142 427.5657142857143 342.08285714285705 429.10571428571427Q342.8999999999999 430.6457142857143 342.8999999999999 432.72Q342.8999999999999 435.42285714285714 341.56428571428563 436.8685714285714Q340.22857142857134 438.3142857142857 337.6828571428571 438.3142857142857Q335.16857142857134 438.3142857142857 333.8799999999999 436.88428571428574Q332.5914285714285 435.45428571428573 332.5914285714285 432.78285714285715Z M350.3799999999999 416.0H353.8371428571428V424.95714285714286H357.5457142857142V416.0H361.00285714285707V438.0H357.5457142857142V428.1H353.8371428571428V438.0H350.3799999999999Z M369.07999999999987 416.0H372.5371428571428V438.0H369.07999999999987Z M380.6142857142856 416.0H385.73714285714277Q388.40857142857135 416.0 389.6342857142856 417.24142857142857Q390.8599999999999 418.48285714285714 390.8599999999999 421.06V422.4114285714286Q390.8599999999999 425.83714285714285 388.5971428571428 426.74857142857144V426.81142857142856Q389.8542857142856 427.18857142857144 390.372857142857 428.3514285714286Q390.8914285714285 429.51428571428573 390.8914285714285 431.46285714285716V435.3285714285714Q390.8914285714285 436.27142857142854 390.9542857142856 436.85285714285715Q391.01714285714274 437.4342857142857 391.2685714285713 438.0H387.7485714285713Q387.5599999999999 437.4657142857143 387.49714285714276 436.99428571428575Q387.43428571428564 436.52285714285716 387.43428571428564 435.29714285714283V431.2742857142857Q387.43428571428564 429.7657142857143 386.9471428571428 429.16857142857145Q386.4599999999999 428.57142857142856 385.2657142857142 428.57142857142856H384.0714285714285V438.0H380.6142857142856ZM385.3285714285713 425.42857142857144Q386.3657142857142 425.42857142857144 386.8842857142856 424.89428571428573Q387.40285714285704 424.36 387.40285714285704 423.10285714285715V421.4057142857143Q387.40285714285704 420.21142857142854 386.97857142857134 419.6771428571428Q386.55428571428564 419.14285714285717 385.64285714285705 419.14285714285717H384.0714285714285V425.42857142857144Z M401.48285714285703 419.14285714285717H397.86857142857133V416.0H408.5542857142856V419.14285714285717H404.9399999999999V438.0H401.48285714285703Z M415.122857142857 432.78285714285715V431.5257142857143H418.39142857142843V433.0342857142857Q418.39142857142843 435.1714285714286 420.182857142857 435.1714285714286Q421.062857142857 435.1714285714286 421.5185714285713 434.65285714285716Q421.9742857142856 434.13428571428574 421.9742857142856 432.9714285714286Q421.9742857142856 431.5885714285714 421.34571428571417 430.5357142857143Q420.71714285714273 429.48285714285714 419.01999999999987 428.0057142857143Q416.882857142857 426.12 416.0342857142856 424.5957142857143Q415.18571428571414 423.07142857142856 415.18571428571414 421.1542857142857Q415.18571428571414 418.54571428571427 416.50571428571413 417.11571428571426Q417.8257142857142 415.6857142857143 420.33999999999986 415.6857142857143Q422.822857142857 415.6857142857143 424.09571428571417 417.11571428571426Q425.36857142857133 418.54571428571427 425.36857142857133 421.21714285714285V422.12857142857143H422.0999999999999V420.9971428571429Q422.0999999999999 419.86571428571426 421.65999999999985 419.34714285714284Q421.21999999999986 418.8285714285714 420.37142857142845 418.8285714285714Q418.64285714285705 418.8285714285714 418.64285714285705 420.9342857142857Q418.64285714285705 422.12857142857143 419.2871428571427 423.16571428571433Q419.93142857142846 424.20285714285717 421.6285714285713 425.68Q423.7971428571427 427.5657142857143 424.6142857142856 429.10571428571427Q425.43142857142846 430.6457142857143 425.43142857142846 432.72Q425.43142857142846 435.42285714285714 424.09571428571417 436.8685714285714Q422.7599999999999 438.3142857142857 420.2142857142856 438.3142857142857Q417.6999999999999 438.3142857142857 416.4114285714285 436.88428571428574Q415.122857142857 435.45428571428573 415.122857142857 432.78285714285715Z" fill="#1B1A17"/>
  <polygon points="80.0,77.0 82.2,82.9 88.6,83.2 83.6,87.2 85.3,93.3 80.0,89.8 74.7,93.3 76.4,87.2 71.4,83.2 77.8,82.9" fill="#E5793A"/>
  <polygon points="432.0,77.0 434.2,82.9 440.6,83.2 435.6,87.2 437.3,93.3 432.0,89.8 426.7,93.3 428.4,87.2 423.4,83.2 429.8,82.9" fill="#E5793A"/>
  <path d="M130.63897885311488 344.53114879024577Q124.92360449609448 348.0746808915984 117.7222328062488 348.0746808915984Q110.52086111640313 348.0746808915984 105.37702419508477 344.41684130310534Q99.54734235092397 348.0746808915984 94.63212040388645 348.0746808915984Q89.71689845684892 348.0746808915984 86.5162888169175 347.21737473804535Q83.31567917698608 346.3600685844923 81.02952943417793 344.874071251667Q75.99999999999999 341.9020765860164 75.99999999999999 337.4440845875405Q75.99999999999999 335.1579348447323 77.25738235854448 333.4433225376262Q79.77214707563344 335.3865498190131 83.6586016384073 335.3865498190131Q93.83196799390359 335.3865498190131 97.71842255667745 326.69918079634215V270.80281958468277Q97.71842255667745 261.88683558773096 88.80243855972566 257.3145361021147L83.77290912554771 254.6854638978853Q93.946275481044 249.9988569251286 96.57534768527339 244.51209754238903Q97.71842255667745 241.99733282530005 97.71842255667745 238.33949323680702V190.10173366355497Q93.83196799390359 181.30005715374355 83.6586016384073 181.30005715374355Q79.77214707563344 181.30005715374355 77.25738235854448 183.2432844351305Q75.99999999999999 181.52867212802437 75.99999999999999 179.29967612878642Q75.99999999999999 177.0706801295485 77.31453610211469 175.12745284816157Q78.62907220422937 173.18422556677461 81.02952943417793 171.81253572108972Q86.17336635549628 168.61192608115832 92.86035435321013 168.61192608115832Q99.54734235092397 168.61192608115832 105.37702419508477 172.26976566965135Q110.52086111640313 168.61192608115832 117.77938654981901 168.61192608115832Q125.03791198323489 168.61192608115832 130.63897885311488 172.26976566965135Q136.01143074871402 168.61192608115832 142.64126500285766 168.61192608115832Q152.35740140979232 168.61192608115832 156.472470946847 175.12745284816154Q157.8441607925319 177.1849876166889 157.8441607925319 179.47113735949705Q157.8441607925319 181.75728710230518 156.472470946847 183.2432844351305Q153.95770622975806 181.30005715374355 150.18555915412458 181.30005715374355Q141.3838826443132 181.30005715374355 138.4118879786626 189.87311868927415V250.2274718994094H192.47932939607546V189.87311868927415Q189.50733473042482 181.30005715374355 180.70565822061343 181.30005715374355Q176.93351114498 181.30005715374355 174.41874642789102 183.2432844351305Q173.04705658220612 181.75728710230518 173.04705658220612 179.47113735949705Q173.04705658220612 177.1849876166889 174.3615926843208 175.12745284816157Q175.6761287864355 173.06991807963422 177.73366355496285 171.5839207468089Q182.07734806629833 168.61192608115832 188.24995237188034 168.61192608115832Q194.87978662602399 168.61192608115832 200.25223852162316 172.26976566965135Q206.08192036578396 168.61192608115832 213.22613831205945 168.61192608115832Q220.3703562583349 168.61192608115832 225.51419317965326 172.26976566965135Q231.11526004953325 168.61192608115832 236.14478948371118 168.61192608115832Q241.1743189178891 168.61192608115832 244.3749285578205 169.46923223471137Q247.57553819775194 170.32653838826442 249.9759954277005 171.81253572108972Q254.89121737473803 174.78453038674033 254.89121737473803 179.24252238521623Q254.89121737473803 181.52867212802437 253.63383501619356 183.2432844351305Q251.11907029910458 181.30005715374355 247.23261573633073 181.30005715374355Q237.05924938083444 181.30005715374355 233.17279481806057 190.10173366355497V238.33949323680702Q233.17279481806057 247.25547723375882 241.97447132787198 252.17069918079633Q244.48923604496093 253.54238902648123 247.1183082491903 254.6854638978853Q240.25985902076584 258.00038102495716 237.8594017908173 260.0579157934845Q233.17279481806057 264.40160030481997 233.17279481806057 270.80281958468277V326.69918079634215Q237.05924938083444 335.3865498190131 247.23261573633073 335.3865498190131Q251.11907029910458 335.3865498190131 253.63383501619356 333.4433225376262Q254.89121737473803 335.1579348447323 254.89121737473803 337.3869308439703Q254.89121737473803 339.61592684320823 253.57668127262335 341.5591541245951Q252.26214517050866 343.5023814059821 249.9759954277005 344.874071251667Q244.71785101924175 348.0746808915984 237.9165555343875 348.0746808915984Q231.11526004953325 348.0746808915984 225.51419317965326 344.41684130310534Q220.3703562583349 348.0746808915984 213.22613831205945 348.0746808915984Q206.08192036578396 348.0746808915984 200.25223852162316 344.41684130310534Q194.87978662602399 348.0746808915984 188.24995237188034 348.0746808915984Q178.5338159649457 348.0746808915984 174.30443894075063 341.5591541245952Q173.04705658220612 339.5016193560678 173.04705658220612 337.21546961325964Q173.04705658220612 334.92931987045154 174.41874642789102 333.4433225376262Q176.93351114498 335.3865498190131 180.70565822061343 335.3865498190131Q189.50733473042482 335.3865498190131 192.47932939607546 326.81348828348257V266.5734425604877H138.4118879786626V326.81348828348257Q141.3838826443132 335.3865498190131 150.18555915412458 335.3865498190131Q153.95770622975806 335.3865498190131 156.472470946847 333.4433225376262Q157.8441607925319 334.92931987045154 157.8441607925319 337.21546961325964Q157.8441607925319 339.5016193560678 156.52962469041722 341.5591541245951Q155.21508858830254 343.6166888931225 153.0432463326348 345.1026862259478Q148.9281767955801 348.0746808915984 142.64126500285766 348.0746808915984Q136.12573823585444 348.0746808915984 130.63897885311488 344.53114879024577ZM202.6526957515717 304.18060582968184Q204.13869308439703 313.78243474947607 208.5966850828729 315.4970470565822V300.6370737283292Q208.5966850828729 270.23128214898077 209.05391503143454 266.2876738426367Q209.51114497999617 262.34406553629265 209.9683749285578 260.7437607163269Q210.9971423128215 256.74299866641263 216.9411316441227 254.6854638978853Q211.68298723566392 253.0851590779196 209.9683749285578 248.16993713088206Q208.5966850828729 242.6831777481425 208.5966850828729 202.90417222328063Q204.13869308439703 204.96170699180794 203.10992570013335 211.13431129738998Q202.0811583158697 217.87845303867402 201.96685082872926 230.16650790626784Q201.85254334158887 242.45456277386168 201.85254334158887 270.80281958468277Q201.85254334158887 299.1510763955039 202.6526957515717 304.18060582968184ZM108.6919413221566 315.4970470565822Q114.17870070489616 313.32520480091443 114.86454562773861 300.5227662411888Q115.43608306344065 287.7203276814631 115.43608306344065 265.0874452276624Q115.43608306344065 242.45456277386168 115.37892931987045 234.96742236616495Q115.32177557630024 227.48028195846825 115.20746808915983 222.90798247285198Q114.86454562773861 209.53400647742427 112.74985711564106 206.67631929891408Q110.63516860354352 203.8186321204039 108.6919413221566 202.90417222328063Q108.6919413221566 242.6831777481425 107.3202514764717 248.16993713088206Q105.719946656506 252.74223661649836 99.54734235092397 254.6854638978853Q106.40579157934843 257.0859211278339 107.3202514764717 260.5151457420461Q108.6919413221566 266.00190512478565 108.6919413221566 300.6370737283292Z M366.95827776719375 344.3025338159649Q361.0142884358926 348.0746808915984 353.75576300247667 348.0746808915984Q346.49723756906076 348.0746808915984 340.32463326347874 344.3025338159649Q334.0377214707563 348.0746808915984 328.77957706229756 348.0746808915984Q323.5214326538388 348.0746808915984 320.32082301390744 347.21737473804535Q317.120213373976 346.3600685844923 314.71975614402743 344.874071251667Q309.8045341969899 341.9020765860164 309.8045341969899 337.4440845875405Q309.8045341969899 335.1579348447323 311.06191655553437 333.4433225376262Q313.5766812726234 335.3865498190131 317.7489045532483 335.3865498190131Q321.92112783387313 335.3865498190131 326.2076586016384 333.21470756334537Q330.49418936940367 331.04286530767763 332.66603162507147 326.47056582206136V270.80281958468277Q332.66603162507147 265.544675176224 330.49418936940367 263.02991045913507Q327.06496475519145 258.80053343494 318.7205181939417 254.6854638978853Q326.49342731948946 251.14193179653267 328.77957706229756 248.39855210516288Q332.66603162507147 243.94056010668697 332.66603162507147 238.33949323680702V185.30081920365782Q328.893884549438 183.92912935797295 323.69289388454945 183.92912935797295Q318.4919032196609 183.92912935797295 312.7765288626405 186.67250904934275Q307.0611545056201 189.41588874071252 302.4888550200038 194.67403314917127Q292.31548866450754 206.56201181177366 292.31548866450754 225.76566965136215Q292.31548866450754 236.8534959039817 295.97332825300055 242.11164031244044Q294.6016384073157 244.96932749095066 290.8294913316822 244.96932749095066Q287.0573442560488 244.96932749095066 284.0853495903982 243.25471518384455Q281.11335492474757 241.54010287673842 278.9415126690798 238.5681082110878Q274.4835206706039 232.62411887978664 274.4835206706039 225.76566965136217Q274.4835206706039 218.9072204229377 276.9982853876929 214.10630596304057Q272.7689083634978 209.07677652886264 272.7689083634978 202.73271099257Q272.7689083634978 196.38864545627737 276.19813297771003 192.2735759192227Q271.3972185178129 187.12973899790435 271.3972185178129 178.44236997523336Q271.3972185178129 168.3833111068775 280.65612497618594 164.95408649266525Q283.39950466755573 163.9253191084016 285.45703943608305 163.9253191084016Q289.3434939988569 163.9253191084016 291.28672128024385 165.6399314155077Q290.486568870261 168.3833111068775 290.486568870261 169.52638597828158Q290.486568870261 174.09868546389788 293.68717851019244 174.09868546389788Q295.40179081729855 174.09868546389788 297.2307106115451 173.64145551533625L302.3745475328634 172.15545818251096Q315.7485235282911 168.61192608115832 324.6645075252429 168.61192608115832Q333.58049152219473 168.61192608115832 340.32463326347874 172.49838064393217Q346.15431510763955 168.61192608115832 353.58430177176604 168.61192608115832Q361.0142884358926 168.61192608115832 367.0725852543342 172.49838064393217Q373.5881120213374 168.61192608115832 380.56086873690225 168.61192608115832Q391.6486949895218 168.61192608115832 399.9931415507716 170.89807582396645L410.16650790626784 173.64145551533625Q411.99542770051437 174.09868546389788 413.7100400076205 174.09868546389788Q416.9106496475519 174.09868546389788 416.9106496475519 169.52638597828158Q416.9106496475519 168.3833111068775 416.11049723756906 165.6399314155077Q418.05372451895596 163.9253191084016 421.0257191846066 163.9253191084016Q423.9977138502572 163.9253191084016 426.7410935416269 164.95408649266528Q429.4844732329967 165.98285387692894 431.5420080015241 167.92608115831587Q436.0 171.92684320823014 436.0 179.41398361592684Q436.0 186.90112402362354 431.1990855401029 192.2735759192227Q434.6283101543151 196.38864545627737 434.6283101543151 202.67555724899978Q434.6283101543151 208.96246904172222 430.2846256429796 214.10630596304057Q432.913697847209 218.7929129357973 432.913697847209 223.479519908554Q432.913697847209 228.16612688131073 431.77062297580494 231.9382739569442Q430.62754810440083 235.71042103257764 428.4557058487331 238.5681082110878Q423.7690988759764 244.96932749095066 416.6820346732711 244.96932749095066Q412.7955801104972 244.96932749095066 411.42389026481237 242.11164031244044Q415.08172985330543 236.8534959039817 415.08172985330543 226.280053343494Q415.08172985330543 215.70661078300628 412.2811964183654 207.87654791388837Q409.4806629834254 200.04648504477044 404.9083634978091 194.67403314917127Q395.6494570394361 183.92912935797295 383.07563345399126 183.92912935797295Q378.2747189940941 183.92912935797295 374.73118689274145 185.30081920365782V238.33949323680702Q374.73118689274145 243.94056010668697 377.13164412269003 246.68393979805677Q380.90379119832346 251.14193179653267 388.6767003238712 254.6854638978853Q380.33225376262146 258.80053343494 378.0461040198133 261.4296056391694Q374.73118689274145 265.544675176224 374.73118689274145 270.80281958468277V326.47056582206136Q376.7887216612688 331.04286530767763 381.0752524290341 333.21470756334537Q385.36178319679937 335.3865498190131 389.5911602209944 335.3865498190131Q393.82053724518954 335.3865498190131 396.33530196227855 333.4433225376262Q397.592684320823 335.1579348447323 397.592684320823 337.3869308439703Q397.592684320823 339.61592684320823 396.27814821870834 341.5591541245951Q394.96361211659365 343.5023814059821 392.6774623737855 344.874071251667Q387.41931796532674 348.0746808915984 380.3894075061917 348.0746808915984Q373.3594970470566 348.0746808915984 366.95827776719375 344.3025338159649ZM343.6395503905506 315.4970470565822Q349.354924747571 313.32520480091443 349.926462183273 300.5227662411888Q350.61230710611545 287.7203276814631 350.61230710611545 265.0874452276624Q350.61230710611545 242.45456277386168 350.55515336254524 234.96742236616495Q350.49799961897503 227.48028195846825 350.38369213183466 222.90798247285198Q350.0407696704134 209.41969899028385 347.81177367117544 206.61916555534387Q345.5827776719375 203.8186321204039 343.6395503905506 202.90417222328063Q343.6395503905506 242.6831777481425 342.2678605448657 248.16993713088206Q340.6675557249 252.74223661649836 334.494951419318 254.6854638978853Q341.35340064774243 257.0859211278339 342.2678605448657 260.5151457420461Q343.6395503905506 266.00190512478565 343.6395503905506 300.6370737283292Z" fill="#E5793A" transform="translate(7,7)"/><path d="M130.63897885311488 344.53114879024577Q124.92360449609448 348.0746808915984 117.7222328062488 348.0746808915984Q110.52086111640313 348.0746808915984 105.37702419508477 344.41684130310534Q99.54734235092397 348.0746808915984 94.63212040388645 348.0746808915984Q89.71689845684892 348.0746808915984 86.5162888169175 347.21737473804535Q83.31567917698608 346.3600685844923 81.02952943417793 344.874071251667Q75.99999999999999 341.9020765860164 75.99999999999999 337.4440845875405Q75.99999999999999 335.1579348447323 77.25738235854448 333.4433225376262Q79.77214707563344 335.3865498190131 83.6586016384073 335.3865498190131Q93.83196799390359 335.3865498190131 97.71842255667745 326.69918079634215V270.80281958468277Q97.71842255667745 261.88683558773096 88.80243855972566 257.3145361021147L83.77290912554771 254.6854638978853Q93.946275481044 249.9988569251286 96.57534768527339 244.51209754238903Q97.71842255667745 241.99733282530005 97.71842255667745 238.33949323680702V190.10173366355497Q93.83196799390359 181.30005715374355 83.6586016384073 181.30005715374355Q79.77214707563344 181.30005715374355 77.25738235854448 183.2432844351305Q75.99999999999999 181.52867212802437 75.99999999999999 179.29967612878642Q75.99999999999999 177.0706801295485 77.31453610211469 175.12745284816157Q78.62907220422937 173.18422556677461 81.02952943417793 171.81253572108972Q86.17336635549628 168.61192608115832 92.86035435321013 168.61192608115832Q99.54734235092397 168.61192608115832 105.37702419508477 172.26976566965135Q110.52086111640313 168.61192608115832 117.77938654981901 168.61192608115832Q125.03791198323489 168.61192608115832 130.63897885311488 172.26976566965135Q136.01143074871402 168.61192608115832 142.64126500285766 168.61192608115832Q152.35740140979232 168.61192608115832 156.472470946847 175.12745284816154Q157.8441607925319 177.1849876166889 157.8441607925319 179.47113735949705Q157.8441607925319 181.75728710230518 156.472470946847 183.2432844351305Q153.95770622975806 181.30005715374355 150.18555915412458 181.30005715374355Q141.3838826443132 181.30005715374355 138.4118879786626 189.87311868927415V250.2274718994094H192.47932939607546V189.87311868927415Q189.50733473042482 181.30005715374355 180.70565822061343 181.30005715374355Q176.93351114498 181.30005715374355 174.41874642789102 183.2432844351305Q173.04705658220612 181.75728710230518 173.04705658220612 179.47113735949705Q173.04705658220612 177.1849876166889 174.3615926843208 175.12745284816157Q175.6761287864355 173.06991807963422 177.73366355496285 171.5839207468089Q182.07734806629833 168.61192608115832 188.24995237188034 168.61192608115832Q194.87978662602399 168.61192608115832 200.25223852162316 172.26976566965135Q206.08192036578396 168.61192608115832 213.22613831205945 168.61192608115832Q220.3703562583349 168.61192608115832 225.51419317965326 172.26976566965135Q231.11526004953325 168.61192608115832 236.14478948371118 168.61192608115832Q241.1743189178891 168.61192608115832 244.3749285578205 169.46923223471137Q247.57553819775194 170.32653838826442 249.9759954277005 171.81253572108972Q254.89121737473803 174.78453038674033 254.89121737473803 179.24252238521623Q254.89121737473803 181.52867212802437 253.63383501619356 183.2432844351305Q251.11907029910458 181.30005715374355 247.23261573633073 181.30005715374355Q237.05924938083444 181.30005715374355 233.17279481806057 190.10173366355497V238.33949323680702Q233.17279481806057 247.25547723375882 241.97447132787198 252.17069918079633Q244.48923604496093 253.54238902648123 247.1183082491903 254.6854638978853Q240.25985902076584 258.00038102495716 237.8594017908173 260.0579157934845Q233.17279481806057 264.40160030481997 233.17279481806057 270.80281958468277V326.69918079634215Q237.05924938083444 335.3865498190131 247.23261573633073 335.3865498190131Q251.11907029910458 335.3865498190131 253.63383501619356 333.4433225376262Q254.89121737473803 335.1579348447323 254.89121737473803 337.3869308439703Q254.89121737473803 339.61592684320823 253.57668127262335 341.5591541245951Q252.26214517050866 343.5023814059821 249.9759954277005 344.874071251667Q244.71785101924175 348.0746808915984 237.9165555343875 348.0746808915984Q231.11526004953325 348.0746808915984 225.51419317965326 344.41684130310534Q220.3703562583349 348.0746808915984 213.22613831205945 348.0746808915984Q206.08192036578396 348.0746808915984 200.25223852162316 344.41684130310534Q194.87978662602399 348.0746808915984 188.24995237188034 348.0746808915984Q178.5338159649457 348.0746808915984 174.30443894075063 341.5591541245952Q173.04705658220612 339.5016193560678 173.04705658220612 337.21546961325964Q173.04705658220612 334.92931987045154 174.41874642789102 333.4433225376262Q176.93351114498 335.3865498190131 180.70565822061343 335.3865498190131Q189.50733473042482 335.3865498190131 192.47932939607546 326.81348828348257V266.5734425604877H138.4118879786626V326.81348828348257Q141.3838826443132 335.3865498190131 150.18555915412458 335.3865498190131Q153.95770622975806 335.3865498190131 156.472470946847 333.4433225376262Q157.8441607925319 334.92931987045154 157.8441607925319 337.21546961325964Q157.8441607925319 339.5016193560678 156.52962469041722 341.5591541245951Q155.21508858830254 343.6166888931225 153.0432463326348 345.1026862259478Q148.9281767955801 348.0746808915984 142.64126500285766 348.0746808915984Q136.12573823585444 348.0746808915984 130.63897885311488 344.53114879024577ZM202.6526957515717 304.18060582968184Q204.13869308439703 313.78243474947607 208.5966850828729 315.4970470565822V300.6370737283292Q208.5966850828729 270.23128214898077 209.05391503143454 266.2876738426367Q209.51114497999617 262.34406553629265 209.9683749285578 260.7437607163269Q210.9971423128215 256.74299866641263 216.9411316441227 254.6854638978853Q211.68298723566392 253.0851590779196 209.9683749285578 248.16993713088206Q208.5966850828729 242.6831777481425 208.5966850828729 202.90417222328063Q204.13869308439703 204.96170699180794 203.10992570013335 211.13431129738998Q202.0811583158697 217.87845303867402 201.96685082872926 230.16650790626784Q201.85254334158887 242.45456277386168 201.85254334158887 270.80281958468277Q201.85254334158887 299.1510763955039 202.6526957515717 304.18060582968184ZM108.6919413221566 315.4970470565822Q114.17870070489616 313.32520480091443 114.86454562773861 300.5227662411888Q115.43608306344065 287.7203276814631 115.43608306344065 265.0874452276624Q115.43608306344065 242.45456277386168 115.37892931987045 234.96742236616495Q115.32177557630024 227.48028195846825 115.20746808915983 222.90798247285198Q114.86454562773861 209.53400647742427 112.74985711564106 206.67631929891408Q110.63516860354352 203.8186321204039 108.6919413221566 202.90417222328063Q108.6919413221566 242.6831777481425 107.3202514764717 248.16993713088206Q105.719946656506 252.74223661649836 99.54734235092397 254.6854638978853Q106.40579157934843 257.0859211278339 107.3202514764717 260.5151457420461Q108.6919413221566 266.00190512478565 108.6919413221566 300.6370737283292Z M366.95827776719375 344.3025338159649Q361.0142884358926 348.0746808915984 353.75576300247667 348.0746808915984Q346.49723756906076 348.0746808915984 340.32463326347874 344.3025338159649Q334.0377214707563 348.0746808915984 328.77957706229756 348.0746808915984Q323.5214326538388 348.0746808915984 320.32082301390744 347.21737473804535Q317.120213373976 346.3600685844923 314.71975614402743 344.874071251667Q309.8045341969899 341.9020765860164 309.8045341969899 337.4440845875405Q309.8045341969899 335.1579348447323 311.06191655553437 333.4433225376262Q313.5766812726234 335.3865498190131 317.7489045532483 335.3865498190131Q321.92112783387313 335.3865498190131 326.2076586016384 333.21470756334537Q330.49418936940367 331.04286530767763 332.66603162507147 326.47056582206136V270.80281958468277Q332.66603162507147 265.544675176224 330.49418936940367 263.02991045913507Q327.06496475519145 258.80053343494 318.7205181939417 254.6854638978853Q326.49342731948946 251.14193179653267 328.77957706229756 248.39855210516288Q332.66603162507147 243.94056010668697 332.66603162507147 238.33949323680702V185.30081920365782Q328.893884549438 183.92912935797295 323.69289388454945 183.92912935797295Q318.4919032196609 183.92912935797295 312.7765288626405 186.67250904934275Q307.0611545056201 189.41588874071252 302.4888550200038 194.67403314917127Q292.31548866450754 206.56201181177366 292.31548866450754 225.76566965136215Q292.31548866450754 236.8534959039817 295.97332825300055 242.11164031244044Q294.6016384073157 244.96932749095066 290.8294913316822 244.96932749095066Q287.0573442560488 244.96932749095066 284.0853495903982 243.25471518384455Q281.11335492474757 241.54010287673842 278.9415126690798 238.5681082110878Q274.4835206706039 232.62411887978664 274.4835206706039 225.76566965136217Q274.4835206706039 218.9072204229377 276.9982853876929 214.10630596304057Q272.7689083634978 209.07677652886264 272.7689083634978 202.73271099257Q272.7689083634978 196.38864545627737 276.19813297771003 192.2735759192227Q271.3972185178129 187.12973899790435 271.3972185178129 178.44236997523336Q271.3972185178129 168.3833111068775 280.65612497618594 164.95408649266525Q283.39950466755573 163.9253191084016 285.45703943608305 163.9253191084016Q289.3434939988569 163.9253191084016 291.28672128024385 165.6399314155077Q290.486568870261 168.3833111068775 290.486568870261 169.52638597828158Q290.486568870261 174.09868546389788 293.68717851019244 174.09868546389788Q295.40179081729855 174.09868546389788 297.2307106115451 173.64145551533625L302.3745475328634 172.15545818251096Q315.7485235282911 168.61192608115832 324.6645075252429 168.61192608115832Q333.58049152219473 168.61192608115832 340.32463326347874 172.49838064393217Q346.15431510763955 168.61192608115832 353.58430177176604 168.61192608115832Q361.0142884358926 168.61192608115832 367.0725852543342 172.49838064393217Q373.5881120213374 168.61192608115832 380.56086873690225 168.61192608115832Q391.6486949895218 168.61192608115832 399.9931415507716 170.89807582396645L410.16650790626784 173.64145551533625Q411.99542770051437 174.09868546389788 413.7100400076205 174.09868546389788Q416.9106496475519 174.09868546389788 416.9106496475519 169.52638597828158Q416.9106496475519 168.3833111068775 416.11049723756906 165.6399314155077Q418.05372451895596 163.9253191084016 421.0257191846066 163.9253191084016Q423.9977138502572 163.9253191084016 426.7410935416269 164.95408649266528Q429.4844732329967 165.98285387692894 431.5420080015241 167.92608115831587Q436.0 171.92684320823014 436.0 179.41398361592684Q436.0 186.90112402362354 431.1990855401029 192.2735759192227Q434.6283101543151 196.38864545627737 434.6283101543151 202.67555724899978Q434.6283101543151 208.96246904172222 430.2846256429796 214.10630596304057Q432.913697847209 218.7929129357973 432.913697847209 223.479519908554Q432.913697847209 228.16612688131073 431.77062297580494 231.9382739569442Q430.62754810440083 235.71042103257764 428.4557058487331 238.5681082110878Q423.7690988759764 244.96932749095066 416.6820346732711 244.96932749095066Q412.7955801104972 244.96932749095066 411.42389026481237 242.11164031244044Q415.08172985330543 236.8534959039817 415.08172985330543 226.280053343494Q415.08172985330543 215.70661078300628 412.2811964183654 207.87654791388837Q409.4806629834254 200.04648504477044 404.9083634978091 194.67403314917127Q395.6494570394361 183.92912935797295 383.07563345399126 183.92912935797295Q378.2747189940941 183.92912935797295 374.73118689274145 185.30081920365782V238.33949323680702Q374.73118689274145 243.94056010668697 377.13164412269003 246.68393979805677Q380.90379119832346 251.14193179653267 388.6767003238712 254.6854638978853Q380.33225376262146 258.80053343494 378.0461040198133 261.4296056391694Q374.73118689274145 265.544675176224 374.73118689274145 270.80281958468277V326.47056582206136Q376.7887216612688 331.04286530767763 381.0752524290341 333.21470756334537Q385.36178319679937 335.3865498190131 389.5911602209944 335.3865498190131Q393.82053724518954 335.3865498190131 396.33530196227855 333.4433225376262Q397.592684320823 335.1579348447323 397.592684320823 337.3869308439703Q397.592684320823 339.61592684320823 396.27814821870834 341.5591541245951Q394.96361211659365 343.5023814059821 392.6774623737855 344.874071251667Q387.41931796532674 348.0746808915984 380.3894075061917 348.0746808915984Q373.3594970470566 348.0746808915984 366.95827776719375 344.3025338159649ZM343.6395503905506 315.4970470565822Q349.354924747571 313.32520480091443 349.926462183273 300.5227662411888Q350.61230710611545 287.7203276814631 350.61230710611545 265.0874452276624Q350.61230710611545 242.45456277386168 350.55515336254524 234.96742236616495Q350.49799961897503 227.48028195846825 350.38369213183466 222.90798247285198Q350.0407696704134 209.41969899028385 347.81177367117544 206.61916555534387Q345.5827776719375 203.8186321204039 343.6395503905506 202.90417222328063Q343.6395503905506 242.6831777481425 342.2678605448657 248.16993713088206Q340.6675557249 252.74223661649836 334.494951419318 254.6854638978853Q341.35340064774243 257.0859211278339 342.2678605448657 260.5151457420461Q343.6395503905506 266.00190512478565 343.6395503905506 300.6370737283292Z" fill="#1B1A17" />
</svg>
