<svg xmlns="http://www.w3.org/2000/svg" viewBox="0 0 512 512" width="1024" height="1024">
  <title>Halftime: script</title>
  <rect width="512" height="512" fill="#1C2D4A"/>
  <path d="M96,356 C190,330 330,336 420,350 C440,353 446,362 430,366" fill="none" stroke="#D9A928" stroke-width="7" stroke-linecap="round"/>
  <path d="M160.35999999999996 396.0H164.13142857142853V405.77142857142854H168.17714285714283V396.0H171.9485714285714V420.0H168.17714285714283V409.2H164.13142857142853V420.0H160.35999999999996Z M190.87428571428566 396.0H195.98285714285709L199.89142857142852 420.0H196.11999999999995L195.43428571428566 415.2342857142857V415.30285714285714H191.1485714285714L190.4628571428571 420.0H186.96571428571423ZM194.9885714285714 412.04571428571427 193.30857142857138 400.18285714285713H193.23999999999995L191.59428571428566 412.04571428571427Z M214.90857142857138 396.0H218.67999999999995V416.57142857142856H224.88571428571424V420.0H214.90857142857138Z M239.9028571428571 396.0H249.87999999999997V399.42857142857144H243.67428571428567V406.1142857142857H248.54285714285712V409.54285714285714H243.67428571428567V420.0H239.9028571428571Z M267.8457142857142 399.42857142857144H263.9028571428571V396.0H275.55999999999995V399.42857142857144H271.6171428571428V420.0H267.8457142857142Z M290.5771428571428 396.0H294.3485714285714V420.0H290.5771428571428Z M310.35999999999996 396.0H315.7428571428571L318.1428571428571 413.1771428571429H318.21142857142854L320.6114285714285 396.0H325.9942857142857V420.0H322.4285714285714V401.8285714285714H322.35999999999996L319.6171428571428 420.0H316.4628571428571L313.71999999999997 401.8285714285714H313.65142857142854V420.0H310.35999999999996Z M342.00571428571425 396.0H352.2914285714285V399.42857142857144H345.77714285714285V405.77142857142854H350.9542857142857V409.2H345.77714285714285V416.57142857142856H352.2914285714285V420.0H342.00571428571425Z" fill="#F4F1E6"/>
  <path d="M377.18632707774793 131.89678284182304H379.01608579088474Q379.8605898123325 131.89678284182304 380.0717158176944 132.03753351206433Q380.2828418230563 132.17828418230562 380.6347184986595 132.24865951742626Q380.9865951742627 132.3190348525469 381.26809651474525 132.60053619302948Q381.97184986595175 133.16353887399464 383.2386058981233 133.86729222520106Q384.92761394101876 135.13404825737265 384.92761394101876 136.8230563002681Q384.92761394101876 138.51206434316353 381.6199731903485 143.7902144772118Q378.31233243967824 149.06836461126005 364.6595174262735 170.04021447721178Q333.1313672922252 218.31769436997317 308.2184986595174 259.5576407506702Q265.14879356568366 331.1997319034852 264.7265415549598 331.62198391420907Q264.3042895442359 332.04423592493293 264.16353887399464 332.4664879356568Q264.02278820375335 333.31099195710453 263.03753351206433 333.31099195710453L261.06702412868634 332.88873994638067L257.2667560321716 333.8739946380697L255.014745308311 333.4517426273458L252.62198391420912 333.8739946380697H251.7774798927614L243.89544235924933 334.99999999999994Q236.857908847185 334.99999999999994 236.857908847185 330.21447721179624Q236.857908847185 328.2439678284182 238.12466487935657 325.2882037533512Q242.48793565683647 315.0134048257372 282.03887399463804 250.54959785522786Q256.0 251.25335120643427 230.66487935656838 251.25335120643427L200.4034852546917 251.112600536193Q192.9436997319035 263.07640750670237 179.9946380697051 285.03351206434314Q151.98525469168902 332.88873994638067 150.1554959785523 333.38136729222515Q148.32573726541557 333.8739946380697 147.19973190348526 333.8739946380697Q146.07372654155498 333.8739946380697 145.08847184986598 332.5368632707774Q144.10321715817696 331.1997319034852 143.75134048257374 331.1997319034852Q143.39946380697052 331.1997319034852 142.27345844504023 331.76273458445036Q141.14745308310995 332.3257372654155 139.03619302949065 332.3257372654155L135.79892761394103 332.1849865951742L134.53217158176946 331.3404825737265Q134.39142091152817 331.3404825737265 134.18029490616624 331.76273458445036Q133.9691689008043 332.1849865951742 133.1246648793566 332.1849865951742Q127.07238605898127 332.1849865951742 127.07238605898127 327.1179624664879Q127.07238605898127 323.739946380697 129.46514745308315 318.2506702412868Q131.857908847185 312.76139410187665 135.7285522788204 306.2868632707774Q139.59919571045577 299.81233243967824 155.71514745308312 275.6735924932975Q171.83109919571046 251.53485254691685 171.83109919571046 251.39410187667556Q169.15683646112603 251.25335120643427 165.63806970509387 251.112600536193Q158.45978552278822 251.112600536193 155.5040214477212 250.54959785522786Q147.48123324396784 249.142091152815 144.52546916890083 237.3190348525469Q142.97721179624668 231.54825737265412 143.11796246648797 229.71849865951742Q143.11796246648797 225.91823056300268 146.35522788203755 225.91823056300268L150.014745308311 226.90348525469167Q152.82975871313675 227.04423592493296 163.52680965147454 227.6072386058981Q174.22386058981235 228.17024128686325 178.86863270777482 228.17024128686325L186.89142091152817 227.88873994638067Q205.18900804289547 199.17560321715817 230.66487935656838 163.00268096514745Q212.0857908847185 178.20375335120642 189.42493297587134 178.20375335120642Q178.72788203753353 178.20375335120642 170.98659517426276 173.06635388739943Q163.245308310992 167.92895442359247 163.245308310992 160.0469168900804Q163.245308310992 152.16487935656835 169.15683646112603 147.59048257372655Q175.06836461126008 143.01608579088472 180.41689008042897 143.01608579088472Q185.7654155495979 143.01608579088472 185.7654155495979 144.70509383378015Q185.7654155495979 145.2680965147453 184.28753351206439 145.97184986595175Q182.80965147453085 146.67560321715817 182.80965147453085 147.3793565683646Q182.80965147453085 149.63136729222518 187.73592493297588 151.3907506702413Q192.66219839142093 153.15013404825737 198.7848525469169 153.15013404825737Q204.9075067024129 153.15013404825737 213.91554959785526 149.56099195710453Q222.9235924932976 145.97184986595173 232.6353887399464 140.34182305630026Q246.14745308310992 132.4597855227882 254.02949061662198 127.2520107238606Q258.5335120643432 125.0 262.47453083109923 125.0Q266.41554959785526 125.0 268.17493297587134 125.91487935656836Q269.9343163538874 126.82975871313673 270.77882037533516 127.74463806970509Q271.6233243967829 128.65951742627345 272.60857908847186 130.13739946380696Q273.5938337801609 131.61528150134046 274.5087131367293 132.38941018766755Q275.42359249329763 133.16353887399464 275.42359249329763 134.14879356568366Q275.42359249329763 135.13404825737265 274.36796246648794 137.24530831099196Q273.3123324396783 139.35656836461126 263.6005361930295 154.3465147453083Q253.8887399463807 169.33646112600536 238.61729222520108 192.63069705093832Q223.34584450402144 215.9249329758713 216.30831099195711 226.90348525469167Q253.8887399463807 226.90348525469167 297.52144772117964 225.4959785522788Q350.58445040214474 141.74932975871312 353.54021447721175 137.6675603217158Q356.4959785522788 133.58579088471848 358.8887399463807 132.3190348525469Q361.2815013404826 131.05227882037534 364.80026809651474 131.05227882037534Z" fill="#F4F1E6" />
</svg>
