<svg xmlns="http://www.w3.org/2000/svg" viewBox="0 0 512 512" width="1024" height="1024">
  <title>Halftime: hoops</title>
  <rect width="512" height="512" fill="#F4F1E6"/>
  <rect x="0" y="0" width="512" height="44" fill="#1F4D3A"/>
  <rect x="0" y="88" width="512" height="44" fill="#1F4D3A"/>
  <rect x="0" y="176" width="512" height="44" fill="#1F4D3A"/>
  <rect x="0" y="264" width="512" height="44" fill="#1F4D3A"/>
  <rect x="0" y="352" width="512" height="44" fill="#1F4D3A"/>
  <rect x="0" y="440" width="512" height="44" fill="#1F4D3A"/>
  <circle cx="256" cy="256" r="160" fill="#1F4D3A" stroke="#F4F1E6" stroke-width="12"/>
  <circle cx="256" cy="256" r="142" fill="none" stroke="#F4F1E6" stroke-width="3"/>
  <path d="M333.120822622108 212.61953727506426H323.4807197943445V299.38046272493574H333.120822622108V331.0H260.24164524421593V299.38046272493574H269.4961439588689V267.5681233933162H242.5038560411311V299.38046272493574H251.75835475578407V331.0H178.87917737789203V299.38046272493574H188.51928020565552V212.61953727506426H178.87917737789203V181.0H251.75835475578407V212.61953727506426H242.5038560411311V241.9254498714653H269.4961439588689V212.61953727506426H260.24164524421593V181.0H333.120822622108Z" fill="#F4F1E6" />
</svg>
